HIERARCHY
ROOT hip
{
  OFFSET 0 0 0
  CHANNELS 6 Xposition Yposition Zposition Zrotation Yrotation Xrotation
  JOINT abdomen
  {
    OFFSET 0 20.6881 -0.73152
    CHANNELS 3 Zrotation Xrotation Yrotation
    JOINT chest
    {
      OFFSET 0 11.7043 -0.48768
      CHANNELS 3 Zrotation Xrotation Yrotation
      JOINT neck
      {
        OFFSET 0 22.1894 -2.19456
        CHANNELS 3 Zrotation Xrotation Yrotation
        JOINT head
        {
          OFFSET -0.24384 7.07133 1.2192
          CHANNELS 3 Zrotation Xrotation Yrotation
          JOINT leftEye
          {
            OFFSET 4.14528 8.04674 8.04672
            CHANNELS 3 Zrotation Xrotation Yrotation
            End Site
            {
              OFFSET 1 0 0
            }
          }
          JOINT rightEye
          {
            OFFSET -3.6576 8.04674 8.04672
            CHANNELS 3 Zrotation Xrotation Yrotation
            End Site
            {
              OFFSET 1 0 0
            }
          }
        }
      }
      JOINT rCollar
      {
        OFFSET -2.68224 19.2634 -4.8768
        CHANNELS 3 Zrotation Xrotation Yrotation
        JOINT rShldr
        {
          OFFSET -8.77824 -1.95073 1.46304
          CHANNELS 3 Zrotation Xrotation Yrotation
          JOINT rForeArm
          {
            OFFSET -28.1742 -1.7115 0.48768
            CHANNELS 3 Zrotation Xrotation Yrotation
            JOINT rHand
            {
              OFFSET -22.5879 0.773209 7.07136
              CHANNELS 3 Zrotation Xrotation Yrotation
              JOINT rThumb1
              {
                OFFSET -1.2192 -0.487915 3.41376
                CHANNELS 3 Zrotation Xrotation Yrotation
                JOINT rThumb2
                {
                  OFFSET -3.37035 -0.52449 3.41376
                  CHANNELS 3 Zrotation Xrotation Yrotation
                  End Site
                  {
                    OFFSET -1.78271 -1.18214 1.43049
                  }
                }
              }
              JOINT rIndex1
              {
                OFFSET -7.75947 0.938293 5.60832
                CHANNELS 3 Zrotation Xrotation Yrotation
                JOINT rIndex2
                {
                  OFFSET -2.54057 -0.884171 1.56538
                  CHANNELS 3 Zrotation Xrotation Yrotation
                  End Site
                  {
                    OFFSET -1.62519 -0.234802 1.16502
                  }
                }
              }
              JOINT rMid1
              {
                OFFSET -8.24714 1.18213 3.41376
                CHANNELS 3 Zrotation Xrotation Yrotation
                JOINT rMid2
                {
                  OFFSET -3.10165 -0.590103 1.0647
                  CHANNELS 3 Zrotation Xrotation Yrotation
                  End Site
                  {
                    OFFSET -2.48547 -0.328903 0.83742
                  }
                }
              }
              JOINT rRing1
              {
                OFFSET -8.82822 0.546677 1.51678
                CHANNELS 3 Zrotation Xrotation Yrotation
                JOINT rRing2
                {
                  OFFSET -2.60934 -0.819778 -0.0198488
                  CHANNELS 3 Zrotation Xrotation Yrotation
                  End Site
                  {
                    OFFSET -2.33842 -0.294052 0.168128
                  }
                }
              }
              JOINT rPinky1
              {
                OFFSET -8.27202 -0.0477905 -0.4584
                CHANNELS 3 Zrotation Xrotation Yrotation
                JOINT rPinky2
                {
                  OFFSET -1.82734 -0.647385 -0.700984
                  CHANNELS 3 Zrotation Xrotation Yrotation
                  End Site
                  {
                    OFFSET -1.69225 -0.51767 -0.607171
                  }
                }
              }
            }
          }
        }
      }
      JOINT lCollar
      {
        OFFSET 2.68224 19.2634 -4.8768
        CHANNELS 3 Zrotation Xrotation Yrotation
        JOINT lShldr
        {
          OFFSET 8.77824 -1.95073 1.46304
          CHANNELS 3 Zrotation Xrotation Yrotation
          JOINT lForeArm
          {
            OFFSET 28.1742 -1.7115 0.48768
            CHANNELS 3 Zrotation Xrotation Yrotation
            JOINT lHand
            {
              OFFSET 22.5879 0.773209 7.07136
              CHANNELS 3 Zrotation Xrotation Yrotation
              JOINT lThumb1
              {
                OFFSET 1.2192 -0.487915 3.41376
                CHANNELS 3 Zrotation Xrotation Yrotation
                JOINT lThumb2
                {
                  OFFSET 3.37035 -0.52449 3.41376
                  CHANNELS 3 Zrotation Xrotation Yrotation
                  End Site
                  {
                    OFFSET 1.78271 -1.18214 1.43049
                  }
                }
              }
              JOINT lIndex1
              {
                OFFSET 7.75947 0.938293 5.60832
                CHANNELS 3 Zrotation Xrotation Yrotation
                JOINT lIndex2
                {
                  OFFSET 2.54057 -0.884171 1.56538
                  CHANNELS 3 Zrotation Xrotation Yrotation
                  End Site
                  {
                    OFFSET 1.62519 -0.234802 1.16502
                  }
                }
              }
              JOINT lMid1
              {
                OFFSET 8.24714 1.18213 3.41376
                CHANNELS 3 Zrotation Xrotation Yrotation
                JOINT lMid2
                {
                  OFFSET 3.10165 -0.590103 1.0647
                  CHANNELS 3 Zrotation Xrotation Yrotation
                  End Site
                  {
                    OFFSET 2.48547 -0.328903 0.83742
                  }
                }
              }
              JOINT lRing1
              {
                OFFSET 8.82822 0.546677 1.51678
                CHANNELS 3 Zrotation Xrotation Yrotation
                JOINT lRing2
                {
                  OFFSET 2.60934 -0.819778 -0.0198488
                  CHANNELS 3 Zrotation Xrotation Yrotation
                  End Site
                  {
                    OFFSET 2.33842 -0.294052 0.168128
                  }
                }
              }
              JOINT lPinky1
              {
                OFFSET 8.27202 -0.0477905 -0.4584
                CHANNELS 3 Zrotation Xrotation Yrotation
                JOINT lPinky2
                {
                  OFFSET 1.82734 -0.647385 -0.700984
                  CHANNELS 3 Zrotation Xrotation Yrotation
                  End Site
                  {
                    OFFSET 1.69225 -0.51767 -0.607171
                  }
                }
              }
            }
          }
        }
      }
    }
  }
  JOINT rButtock
  {
    OFFSET -8.77824 4.35084 1.2192
    CHANNELS 3 Zrotation Xrotation Yrotation
    JOINT rThigh
    {
      OFFSET 0 -1.70687 -2.19456
      CHANNELS 3 Zrotation Xrotation Yrotation
      JOINT rShin
      {
        OFFSET 0 -36.8199 0.73152
        CHANNELS 3 Zrotation Xrotation Yrotation
        JOINT rFoot
        {
          OFFSET 0.73152 -45.1104 -5.12064
          CHANNELS 3 Zrotation Xrotation Yrotation
          End Site
          {
            OFFSET -1.1221 -3.69964 12.103
          }
        }
      }
    }
  }
  JOINT lButtock
  {
    OFFSET 8.77824 4.35084 1.2192
    CHANNELS 3 Zrotation Xrotation Yrotation
    JOINT lThigh
    {
      OFFSET 0 -1.70687 -2.19456
      CHANNELS 3 Zrotation Xrotation Yrotation
      JOINT lShin
      {
        OFFSET 0 -36.8199 0.73152
        CHANNELS 3 Zrotation Xrotation Yrotation
        JOINT lFoot
        {
          OFFSET -0.73152 -45.1104 -5.12064
          CHANNELS 3 Zrotation Xrotation Yrotation
          End Site
          {
            OFFSET 1.1221 -3.69964 12.103
          }
        }
      }
    }
  }
}
MOTION
Frames:	6
Frame Time:	0.00833333
-202.623 76.9664 -9.54516 -186.395 53.0049 -181.603 -13.5397 16.0403 12.7801 -0.762469 -1.89045 3.07668 -20.8095 29.3982 -18.5902 44.8908 -38.3884 -26.7341 -0.0 0.0 0.0 -0.0 0.0 0.0 3.92284e-13 2.62519e-13 -3.60494e-13 38.5086 -11.7152 96.3456 -28.0822 -31.1298 69.0598 -0.0164492 -3.66289 -0.515493 8.36752e-10 -2.57688e-09 1.81389e-10 1.44154e-09 -4.44685e-09 3.29078e-10 8.36758e-10 -2.57689e-09 1.81371e-10 7.73091 5.47488 0.417314 8.36752e-10 -2.57689e-09 1.81387e-10 2.90554 0.965183 0.102902 8.36758e-10 -2.57689e-09 1.8139e-10 10.2786 0.731801 0.0259123 8.36742e-10 -2.57689e-09 1.81397e-10 2.22167 -0.733487 -0.20892 3.92172e-13 2.62545e-13 -3.60661e-13 -29.6029 -33.2069 -92.0703 27.5716 -28.4821 -64.8307 1.06558 -27.9599 4.27829 3.52957e-10 -6.7357e-10 -5.45872e-09 7.1925e-10 -1.1553e-09 -9.40859e-09 3.52958e-10 -6.73573e-10 -5.45872e-09 -7.73091 5.47488 -0.417314 3.52959e-10 -6.73571e-10 -5.45872e-09 -2.90554 0.965183 -0.102902 3.52956e-10 -6.73571e-10 -5.45872e-09 -10.2786 0.731801 -0.0259123 3.52966e-10 -6.73569e-10 -5.45873e-09 -2.22167 -0.733487 0.20892 -2.03217e-16 0.0 -3.88251e-19 -10.6351 -20.394 -11.1333 -1.52752 64.89 1.69547 -3.08255 -1.61052 -16.4135 2.03217e-16 0.0 3.88251e-19 -5.73321 -28.8612 -4.33666 0.635119 50.283 -0.605699 -4.12236 -16.7414 -12.2583
-202.729 76.9031 -9.47868 -186.649 52.6984 -181.55 -13.6259 16.2041 12.8732 -0.678085 -1.88094 3.10528 -20.7704 29.4281 -18.7368 45.0129 -38.5725 -26.9342 -0.0 0.0 0.0 -0.0 0.0 0.0 3.7377e-13 3.19627e-13 -1.78012e-13 38.174 -11.0364 96.3719 -28.1013 -31.2534 69.2535 -0.0157068 -3.57571 -0.503194 5.24311e-10 -1.50956e-09 3.88575e-10 9.03842e-10 -2.60455e-09 6.81888e-10 5.24316e-10 -1.50956e-09 3.88556e-10 7.73091 5.47488 0.417314 5.24311e-10 -1.50956e-09 3.88575e-10 2.90554 0.965183 0.102902 5.24315e-10 -1.50956e-09 3.88576e-10 10.2786 0.731801 0.0259123 5.24299e-10 -1.50956e-09 3.88584e-10 2.22167 -0.733487 -0.20892 3.73635e-13 3.19664e-13 -1.78161e-13 -29.6842 -33.0252 -91.2566 27.6643 -28.8883 -65.4774 1.06688 -27.9753 4.28107 1.31693e-10 -7.77267e-10 -3.89887e-09 3.0535e-10 -1.33876e-09 -6.72184e-09 1.31693e-10 -7.77269e-10 -3.89887e-09 -7.73091 5.47488 -0.417314 1.31696e-10 -7.77267e-10 -3.89887e-09 -2.90554 0.965183 -0.102902 1.31691e-10 -7.77266e-10 -3.89887e-09 -10.2786 0.731801 -0.0259123 1.31702e-10 -7.77265e-10 -3.89888e-09 -2.22167 -0.733487 0.20892 -2.03217e-16 0.0 -3.88251e-19 -10.2422 -20.3585 -11.0949 -1.52032 64.8038 1.68462 -3.06104 -1.36183 -16.7558 2.03217e-16 0.0 3.88251e-19 -6.00981 -29.2982 -4.65588 0.647107 50.5447 -0.610026 -4.07145 -16.7588 -12.0974
-202.827 76.863 -9.43436 -186.925 52.2856 -181.578 -13.6923 16.3681 12.9101 -0.686558 -1.82546 3.12067 -20.6474 29.4903 -18.8526 45.3167 -39.0854 -26.8851 -0.0 0.0 0.0 -0.0 0.0 0.0 3.64195e-13 3.23739e-13 -2.89043e-13 37.751 -10.4658 96.2844 -28.1248 -31.413 69.5069 -0.0156071 -3.56095 -0.501112 1.12124e-09 -2.08797e-09 -1.45875e-09 1.93997e-09 -3.60068e-09 -2.50857e-09 1.12124e-09 -2.08797e-09 -1.45877e-09 7.73091 5.47488 0.417314 1.12124e-09 -2.08797e-09 -1.45875e-09 2.90554 0.965183 0.102902 1.12124e-09 -2.08797e-09 -1.45875e-09 10.2786 0.731801 0.0259123 1.12123e-09 -2.08797e-09 -1.45874e-09 2.22167 -0.733487 -0.20892 3.64032e-13 3.23776e-13 -2.89187e-13 -29.7558 -32.7194 -90.5828 27.7522 -29.2965 -66.1269 1.07272 -28.0442 4.29352 2.7174e-10 -9.33129e-10 -3.0073e-09 5.26157e-10 -1.61074e-09 -5.17775e-09 2.71738e-10 -9.3313e-10 -3.00729e-09 -7.73091 5.47488 -0.417314 2.71743e-10 -9.33129e-10 -3.00729e-09 -2.90554 0.965183 -0.102902 2.71736e-10 -9.33128e-10 -3.0073e-09 -10.2786 0.731801 -0.0259123 2.71747e-10 -9.33127e-10 -3.00731e-09 -2.22167 -0.733487 0.20892 -2.03217e-16 0.0 -3.88251e-19 -9.93384 -20.2468 -11.1248 -1.49935 64.5835 1.66407 -3.12416 -1.2516 -17.3786 2.03217e-16 0.0 3.88251e-19 -6.37544 -29.7411 -4.98124 0.660247 50.8482 -0.619737 -3.92391 -17.2515 -11.4235
-202.911 76.8845 -9.41278 -187.023 51.7068 -181.502 -13.7372 16.5321 12.9089 -0.753272 -1.74016 3.1274 -20.4623 29.5886 -18.9515 45.736 -39.8381 -26.6774 -0.0 0.0 0.0 -0.0 0.0 0.0 3.53526e-13 2.9667e-13 -5.66859e-13 37.2753 -9.95345 96.1374 -28.1495 -31.5885 69.7872 -0.0159234 -3.59521 -0.505948 2.27608e-09 -3.60746e-09 -4.64835e-09 3.94212e-09 -6.2198e-09 -8.01469e-09 2.27609e-09 -3.60746e-09 -4.64837e-09 7.73091 5.47488 0.417314 2.27608e-09 -3.60746e-09 -4.64834e-09 2.90554 0.965183 0.102902 2.27609e-09 -3.60746e-09 -4.64835e-09 10.2786 0.731801 0.0259123 2.27607e-09 -3.60746e-09 -4.64834e-09 2.22167 -0.733487 -0.20892 3.53328e-13 2.96701e-13 -5.67008e-13 -29.835 -32.3387 -89.9978 27.8353 -29.7095 -66.788 1.08234 -28.1566 4.31389 6.23563e-10 -1.12456e-09 -2.31634e-09 1.11491e-09 -1.9437e-09 -3.97354e-09 6.23557e-10 -1.12456e-09 -2.31633e-09 -7.73091 5.47488 -0.417314 6.23564e-10 -1.12456e-09 -2.31633e-09 -2.90554 0.965183 -0.102902 6.23556e-10 -1.12456e-09 -2.31633e-09 -10.2786 0.731801 -0.0259123 6.23568e-10 -1.12456e-09 -2.31634e-09 -2.22167 -0.733487 0.20892 -2.03217e-16 0.0 -3.88251e-19 -9.67446 -20.0787 -11.1853 -1.46687 64.2437 1.63545 -3.25681 -1.25868 -18.2132 2.03217e-16 0.0 3.88251e-19 -6.79534 -30.1884 -5.30513 0.6745 51.1855 -0.634416 -3.65302 -18.0514 -10.3128
-203.009 76.8758 -9.37672 -187.212 51.221 -181.384 -13.7574 16.7125 12.9065 -0.822513 -1.64175 3.13502 -20.2588 29.6934 -19.0472 46.1497 -40.6637 -26.4396 -0.0 0.0 0.0 -0.0 0.0 0.0 3.30725e-13 2.46095e-13 -8.5223e-13 36.7974 -9.43478 96.0055 -28.1723 -31.7598 70.064 -0.0161855 -3.6253 -0.510193 3.39107e-09 -5.14557e-09 -7.6907e-09 5.87466e-09 -8.87128e-09 -1.32661e-08 3.39107e-09 -5.14557e-09 -7.69071e-09 7.73091 5.47488 0.417314 3.39106e-09 -5.14557e-09 -7.69069e-09 2.90554 0.965183 0.102902 3.39107e-09 -5.14557e-09 -7.6907e-09 10.2786 0.731801 0.0259123 3.39106e-09 -5.14557e-09 -7.69069e-09 2.22167 -0.733487 -0.20892 3.30503e-13 2.46119e-13 -8.52383e-13 -29.964 -31.8942 -89.4632 27.9151 -30.1327 -67.4644 1.08987 -28.2441 4.32979 9.66754e-10 -1.27329e-09 -1.82949e-09 1.69319e-09 -2.20229e-09 -3.12213e-09 9.66745e-10 -1.27329e-09 -1.82948e-09 -7.73091 5.47488 -0.417314 9.66754e-10 -1.27329e-09 -1.82949e-09 -2.90554 0.965183 -0.102902 9.66745e-10 -1.27329e-09 -1.82948e-09 -10.2786 0.731801 -0.0259123 9.66757e-10 -1.27329e-09 -1.82949e-09 -2.22167 -0.733487 0.20892 -2.03217e-16 0.0 -3.88251e-19 -9.41966 -19.9065 -11.2294 -1.43129 63.8671 1.60645 -3.44183 -1.37442 -19.1325 2.03217e-16 0.0 3.88251e-19 -7.20562 -30.6306 -5.63365 0.688759 51.5186 -0.650186 -3.34753 -18.8543 -9.18396
-203.101 76.7925 -9.3103 -187.485 50.873 -181.323 -13.7502 16.9256 12.9401 -0.838617 -1.54693 3.1531 -20.081 29.7751 -19.1528 46.4264 -41.3928 -26.3035 -0.0 0.0 0.0 -0.0 0.0 0.0 2.84754e-13 1.79691e-13 -9.85922e-13 36.3653 -8.84959 95.9456 -28.191 -31.908 70.3055 -0.0159036 -3.59799 -0.506337 3.86842e-09 -5.77982e-09 -9.09627e-09 6.70195e-09 -9.96453e-09 -1.56926e-08 3.86843e-09 -5.77982e-09 -9.09629e-09 7.73091 5.47488 0.417314 3.86842e-09 -5.77982e-09 -9.09627e-09 2.90554 0.965183 0.102902 3.86843e-09 -5.77982e-09 -9.09627e-09 10.2786 0.731801 0.0259123 3.86842e-09 -5.77982e-09 -9.09627e-09 2.22167 -0.733487 -0.20892 2.84534e-13 1.7971e-13 -9.86071e-13 -30.1855 -31.3945 -88.9422 27.993 -30.5708 -68.1604 1.08933 -28.2385 4.32874 1.0809e-09 -1.30105e-09 -1.55027e-09 1.88257e-09 -2.25116e-09 -2.63644e-09 1.08089e-09 -1.30105e-09 -1.55025e-09 -7.73091 5.47488 -0.417314 1.0809e-09 -1.30105e-09 -1.55026e-09 -2.90554 0.965183 -0.102902 1.08089e-09 -1.30105e-09 -1.55026e-09 -10.2786 0.731801 -0.0259123 1.08091e-09 -1.30105e-09 -1.55026e-09 -2.22167 -0.733487 0.20892 -2.03217e-16 0.0 -3.88251e-19 -9.12579 -19.7826 -11.2102 -1.4003 63.5364 1.58402 -3.66201 -1.5902 -20.0093 2.03217e-16 0.0 3.88251e-19 -7.54235 -31.0582 -5.97286 0.701713 51.8096 -0.663 -3.13968 -19.3581 -8.46672
